<?xml version="1.0" standalone="no"?>
<!DOCTYPE svg PUBLIC "-//W3C//DTD SVG 20010904//EN"
 "http://www.w3.org/TR/2001/REC-SVG-20010904/DTD/svg10.dtd">
<svg version="1.0" xmlns="http://www.w3.org/2000/svg"
 width="1024.000000pt" height="1536.000000pt" viewBox="0 0 1024.000000 1536.000000"
 preserveAspectRatio="xMidYMid meet">

<g transform="translate(0.000000,1536.000000) scale(0.100000,-0.100000)"
fill="#000000" stroke="none">
<path d="M5047 12019 c-96 -23 -182 -91 -230 -183 -30 -57 -32 -67 -32 -171 0
-98 3 -116 26 -165 30 -64 104 -140 160 -166 l39 -17 0 -92 c0 -88 -1 -93 -22
-99 -13 -3 -229 -6 -481 -6 -503 0 -536 -3 -692 -62 -310 -118 -531 -374 -599
-698 l-22 -105 -61 -7 c-80 -9 -162 -48 -222 -107 -99 -96 -121 -175 -121
-431 0 -196 8 -249 51 -335 50 -101 176 -183 294 -193 l63 -5 15 -81 c29 -158
107 -321 206 -428 l53 -58 -509 0 c-551 0 -577 -2 -668 -55 -60 -36 -132 -116
-163 -183 -26 -56 -27 -61 -27 -252 l0 -195 32 -67 c40 -84 97 -142 181 -181
57 -27 81 -32 164 -35 l97 -4 5 -52 c3 -28 19 -206 36 -396 16 -190 46 -523
65 -740 19 -217 51 -573 70 -790 19 -217 39 -442 45 -500 6 -58 19 -206 30
-330 32 -356 50 -530 61 -579 79 -365 356 -635 709 -691 42 -6 576 -10 1525
-10 1404 0 1464 1 1554 20 176 36 364 149 475 286 133 162 193 330 216 600 6
71 17 197 25 281 16 164 82 872 145 1563 68 728 120 1309 120 1324 0 10 23 15
98 18 78 3 108 9 154 30 114 53 193 155 218 285 19 96 9 324 -18 391 -29 74
-94 156 -155 197 -96 63 -114 65 -674 65 l-502 0 35 38 c111 117 207 320 229
478 l7 51 61 7 c131 13 260 112 309 236 19 48 22 78 26 254 4 227 -4 292 -51
379 -55 104 -173 184 -288 194 l-58 6 -6 41 c-50 321 -242 583 -530 726 -188
94 -187 93 -764 100 l-504 5 -2 93 -1 94 46 23 c102 52 171 149 191 273 42
254 -185 470 -434 411z m155 -237 c33 -19 68 -81 68 -121 0 -49 -25 -98 -62
-121 -48 -31 -128 -24 -168 15 -60 57 -63 138 -8 200 47 54 106 63 170 27z
m952 -902 c257 -30 471 -174 579 -390 84 -168 82 -151 82 -770 0 -613 1 -600
-77 -760 -33 -68 -58 -102 -127 -171 -96 -96 -188 -149 -295 -168 -40 -8 -431
-11 -1206 -11 -995 0 -1154 2 -1205 15 -195 50 -366 215 -438 422 -21 64 -31
115 -38 207 -12 164 -11 871 1 976 39 339 291 600 625 649 87 12 1990 13 2099
1z m-2964 -1171 l0 -301 -32 7 c-42 8 -77 33 -105 75 -22 31 -23 42 -23 230 0
189 1 198 23 231 22 33 69 57 115 58 l22 1 0 -301z m3940 285 c24 -10 48 -29
60 -50 20 -31 21 -45 18 -243 l-3 -210 -29 -30 c-25 -26 -78 -51 -108 -51 -5
0 -8 135 -8 300 0 334 -5 314 70 284z m644 -1624 c49 -11 85 -37 111 -81 17
-29 20 -52 20 -169 0 -123 -2 -138 -23 -172 -13 -21 -40 -45 -66 -57 l-42 -21
-2656 0 -2655 0 -43 23 c-71 37 -85 76 -85 232 0 137 8 167 53 208 53 48 -73
46 2722 46 1542 0 2641 -3 2664 -9z m-359 -788 c-3 -31 -19 -210 -35 -397 -68
-770 -123 -1387 -200 -2225 -16 -173 -34 -369 -40 -435 -21 -238 -52 -349
-125 -460 -78 -117 -190 -206 -314 -247 l-66 -23 -1475 -2 c-1642 -4 -1568 -7
-1710 64 -109 53 -205 154 -265 276 -77 159 -47 -112 -310 2822 -24 275 -47
542 -51 592 l-7 93 2302 0 2302 0 -6 -58z"/>
<path d="M4338 10149 c-109 -16 -213 -108 -244 -217 -37 -127 -13 -252 65
-335 65 -69 109 -90 209 -95 77 -4 87 -2 147 27 115 57 168 152 169 301 0 73
-4 94 -28 148 -58 126 -179 191 -318 171z m149 -221 c32 -30 31 -81 -2 -113
-30 -30 -64 -32 -99 -4 -31 24 -36 81 -10 117 21 30 79 30 111 0z"/>
<path d="M5753 10134 c-60 -22 -127 -86 -160 -152 -25 -51 -28 -68 -28 -157 0
-89 3 -106 28 -157 34 -69 101 -131 164 -152 74 -25 179 -21 240 10 61 30 117
88 147 153 17 37 21 65 21 146 0 95 -2 103 -35 165 -38 71 -105 129 -170 149
-51 15 -156 13 -207 -5z m120 -206 c24 -28 22 -89 -3 -116 -64 -68 -168 30
-114 106 31 45 83 49 117 10z"/>
<path d="M4751 9368 c-92 -49 -84 -151 20 -257 101 -103 276 -157 431 -135
154 23 313 129 353 237 24 63 9 119 -38 147 -59 36 -101 26 -169 -42 -62 -62
-137 -93 -228 -93 -91 0 -140 22 -216 97 -56 54 -108 70 -153 46z"/>
<path d="M3120 9987 c-20 -7 -44 -27 -58 -47 -23 -34 -23 -39 -20 -225 3 -165
5 -194 22 -221 21 -35 64 -64 95 -64 21 0 21 2 21 285 0 222 -3 285 -12 284
-7 0 -29 -5 -48 -12z m-26 -503 c5 -14 4 -15 -9 -4 -17 14 -19 20 -6 20 5 0
12 -7 15 -16z"/>
<path d="M7070 9710 l0 -280 23 1 c16 1 18 2 5 6 -16 4 -18 20 -18 164 l0 159
25 0 c14 0 25 -5 25 -11 0 -5 -6 -7 -12 -3 -7 4 -10 3 -5 -1 4 -5 -1 -17 -10
-28 -10 -11 -13 -17 -6 -14 6 4 13 4 16 0 2 -5 2 -3 1 4 -2 7 1 15 6 18 6 4
10 1 10 -5 0 -6 5 -8 13 -4 7 5 7 2 -2 -10 -12 -15 -12 -17 0 -14 8 2 18 8 22
13 5 6 7 4 5 -4 -2 -8 -14 -16 -27 -18 -21 -3 -51 -25 -51 -37 0 -3 8 -3 18 0
10 4 13 3 6 -3 -16 -12 -25 -43 -12 -40 6 1 12 -11 15 -26 3 -22 1 -27 -9 -21
-11 6 -11 5 0 -8 7 -9 11 -32 9 -51 -5 -47 6 -66 27 -48 9 7 13 17 10 22 -3 5
0 8 7 7 30 -7 39 45 39 235 0 147 -3 194 -15 217 -19 37 -52 60 -87 60 l-28 0
0 -280z m36 118 c4 -7 3 -8 -4 -4 -8 5 -12 -1 -13 -16 0 -13 -3 -17 -6 -10 -5
13 2 42 11 42 3 0 8 -5 12 -12z m59 -328 c3 -5 1 -10 -4 -10 -6 0 -11 5 -11
10 0 6 2 10 4 10 3 0 8 -4 11 -10z"/>
<path d="M3915 7125 c-57 -21 -110 -68 -134 -118 -16 -33 -21 -62 -21 -128 0
-82 71 -1347 90 -1604 5 -71 14 -229 20 -350 14 -275 21 -310 67 -364 112
-131 307 -109 385 44 20 38 21 51 15 255 -4 118 -14 359 -22 535 -15 327 -24
527 -50 1135 -8 190 -17 367 -21 394 -9 84 -54 150 -129 188 -51 27 -147 33
-200 13z"/>
<path d="M5050 7125 c-59 -19 -118 -69 -141 -119 -18 -39 -19 -94 -19 -1199 0
-1265 -4 -1188 59 -1260 61 -69 192 -93 277 -49 54 28 110 92 124 141 7 27 10
395 8 1188 -3 1064 -4 1150 -20 1179 -22 41 -72 90 -110 110 -43 22 -125 26
-178 9z"/>
<path d="M6140 7119 c-56 -25 -96 -62 -122 -114 -20 -37 -24 -94 -59 -830 -21
-434 -45 -951 -55 -1147 -16 -340 -16 -359 0 -403 24 -62 57 -98 113 -125 122
-58 268 -7 317 112 16 36 22 113 46 588 6 113 15 277 20 365 11 180 31 540 57
1036 20 389 19 394 -55 468 -73 72 -172 91 -262 50z"/>
<path d="M6430 3845 c-14 -8 -20 -14 -15 -14 6 0 21 6 35 14 14 8 21 14 15 14
-5 0 -21 -6 -35 -14z"/>
<path d="M6378 3813 c7 -3 16 -2 19 1 4 3 -2 6 -13 5 -11 0 -14 -3 -6 -6z"/>
</g>
</svg>
